<mxfile host="app.diagrams.net" modified="2023-05-19T03:33:52.963Z" agent="Mozilla/5.0 (Windows NT 10.0; Win64; x64) AppleWebKit/537.36 (KHTML, like Gecko) Chrome/112.0.0.0 Safari/537.36" version="21.3.2" etag="vduhPoxv7_y2EjIRDhIS" type="github">
  <diagram name="Halaman-1" id="R1Di9et8dU-iCHtVGfrM">
    <mxGraphModel>
      <root>
        <mxCell id="0" />
        <mxCell id="1" parent="0" />
      </root>
    </mxGraphModel>
  </diagram>
</mxfile>
